# xmcd CD database file
#
# Track frame offsets:
#	150
#	1571
#	24063
#	44905
#	60964
#	76801
#	83543
#	105042
#	122354
#
# Disc length: 1763 seconds
#
# Revision: 3
# Processed by: cddbd v1.5.2PL0 Copyright (c) Steve Scherf et al.
# Submitted via: CDex 1.70beta2
#
DISCID=4706e109
DTITLE=May J. - Believin'... 
DYEAR=2010
DGENRE=J-Pop
TTITLE0=Introduction
TTITLE1=あの日があるから feat. RYO the SKYWALKER
TTITLE2=All I Want For Christmas Is You
TTITLE3=Every Single Day feat. URATA NAOYA (AAA)
TTITLE4=LADY RED
TTITLE5=Believin'... -Interlude-
TTITLE6=気づかないで
TTITLE7=Destiny feat. STEVIE HOANG
TTITLE8=君のとなりに -Outroduction-
EXTD=YEAR: 2010
EXTT0=
EXTT1=
EXTT2=
EXTT3=
EXTT4=
EXTT5=
EXTT6=
EXTT7=
EXTT8=
PLAYORDER=
